<?xml version="1.0" encoding="UTF-8" standalone="no"?>
<svg
   xmlns:dc="http://purl.org/dc/elements/1.1/"
   xmlns:cc="http://creativecommons.org/ns#"
   xmlns:rdf="http://www.w3.org/1999/02/22-rdf-syntax-ns#"
   xmlns:svg="http://www.w3.org/2000/svg"
   xmlns="http://www.w3.org/2000/svg"
   xmlns:sodipodi="http://sodipodi.sourceforge.net/DTD/sodipodi-0.dtd"
   xmlns:inkscape="http://www.inkscape.org/namespaces/inkscape"
   aria-hidden="true"
   role="img"
   class="iconify iconify--logos"
   width="31.88"
   height="32"
   preserveAspectRatio="xMidYMid meet"
   viewBox="0 0 256 257"
   version="1.1"
   id="svg3914"
   sodipodi:docname="vite.svg"
   inkscape:version="0.92.2 (5c3e80d, 2017-08-06)">
  <metadata
     id="metadata3918">
    <rdf:RDF>
      <cc:Work
         rdf:about="">
        <dc:format>image/svg+xml</dc:format>
        <dc:type
           rdf:resource="http://purl.org/dc/dcmitype/StillImage" />
      </cc:Work>
    </rdf:RDF>
  </metadata>
  <sodipodi:namedview
     pagecolor="#ffffff"
     bordercolor="#666666"
     borderopacity="1"
     objecttolerance="10"
     gridtolerance="10"
     guidetolerance="10"
     inkscape:pageopacity="0"
     inkscape:pageshadow="2"
     inkscape:window-width="1920"
     inkscape:window-height="1103"
     id="namedview3916"
     showgrid="false"
     inkscape:zoom="29.5"
     inkscape:cx="5.8515722"
     inkscape:cy="17.570406"
     inkscape:window-x="0"
     inkscape:window-y="27"
     inkscape:window-maximized="1"
     inkscape:current-layer="svg3914" />
  <defs
     id="defs3908">
    <linearGradient
       id="IconifyId1813088fe1fbc01fb466"
       x1="-.828%"
       x2="57.636%"
       y1="7.652%"
       y2="78.411%">
      <stop
         offset="0%"
         stop-color="#41D1FF"
         id="stop3896" />
      <stop
         offset="100%"
         stop-color="#BD34FE"
         id="stop3898" />
    </linearGradient>
    <linearGradient
       id="IconifyId1813088fe1fbc01fb467"
       x1="43.376%"
       x2="50.316%"
       y1="2.242%"
       y2="89.03%">
      <stop
         offset="0%"
         stop-color="#FFEA83"
         id="stop3901" />
      <stop
         offset="8.333%"
         stop-color="#FFDD35"
         id="stop3903" />
      <stop
         offset="100%"
         stop-color="#FFA800"
         id="stop3905" />
    </linearGradient>
  </defs>
  <g
     transform="matrix(1.0538199,0,0,-1.0538199,0.67781236,254.87384)"
     id="g3925">
    <path
       d="m 167.021,50.0199 c -6.42,-0.9168 -8.488,-5.9148 -4.598,-11.1019 l 17.776,-23.6981 c 17.752,10.0723 32.708,24.493 43.391,41.843 l -56.569,-7.043"
       style="fill:#231f20;fill-opacity:1;fill-rule:nonzero;stroke:none;stroke-width:0.1"
       id="path41"
       inkscape:connector-curvature="0" />
    <path
       d="m 74.6574,75.2738 c 6.4203,0.9184 8.4887,5.9121 4.5985,11.0992 l -46.4973,61.999 c -3.8938,5.187 -2.8301,6.248 2.357,2.357 l 61.9891,-46.49 c 5.1873,-3.894 10.1813,-1.823 11.0993,4.595 l 10.959,113.025 c 0.914,6.42 2.417,6.42 3.335,0 l 10.959,-113.042 c 0.918,-6.417 5.912,-8.485 11.099,-4.595 l 62.012,46.507 c 5.188,3.891 6.248,2.83 2.358,-2.357 L 162.425,86.3699 c -3.89,-5.1867 -1.822,-10.182 4.599,-11.0988 l 62.314,-7.7582 c 7.761,15.941 12.12,33.8391 12.12,52.7621 0,66.674 -54.052,120.726 -120.729,120.726 C 54.052,241.001 0,186.949 0,120.275 0,101.342 4.36563,83.434 12.1297,67.4898 l 62.5277,7.784"
       style="fill:#231f20;fill-opacity:1;fill-rule:nonzero;stroke:none;stroke-width:0.1"
       id="path43"
       inkscape:connector-curvature="0" />
    <path
       d="m 108.203,16.4551 c -0.918,6.4179 -5.912,8.4859 -11.0995,4.5988 L 78.5465,7.13203 C 88.6414,3.36797 99.3848,0.933984 110.553,0 l -2.35,16.4551"
       style="fill:#231f20;fill-opacity:1;fill-rule:nonzero;stroke:none;stroke-width:0.1"
       id="path45"
       inkscape:connector-curvature="0" />
    <path
       d="M 133.457,16.4711 131.106,0.0148438 C 142.258,0.966016 152.978,3.41289 163.06,7.18984 L 144.559,21.0691 c -5.19,3.8899 -10.185,1.8188 -11.102,-4.598"
       style="fill:#231f20;fill-opacity:1;fill-rule:nonzero;stroke:none;stroke-width:0.1"
       id="path47"
       inkscape:connector-curvature="0" />
    <path
       d="M 74.6574,50.016 17.8488,57.0879 C 28.5656,39.6781 43.5848,25.2109 61.4137,15.1301 l 17.8422,23.7871 c 3.8902,5.1867 1.8218,10.1808 -4.5985,11.0988"
       style="fill:#231f20;fill-opacity:1;fill-rule:nonzero;stroke:none;stroke-width:0.1"
       id="path49"
       inkscape:connector-curvature="0" />
  </g>
</svg>
